<mxfile host="app.diagrams.net" agent="Mozilla/5.0 (Windows NT 10.0; Win64; x64) AppleWebKit/537.36 (KHTML, like Gecko) Chrome/130.0.0.0 Safari/537.36 Edg/130.0.0.0" version="24.8.6">
  <diagram name="Страница — 2" id="9Z1RDb-6SZOugxSMsuRI">
    <mxGraphModel dx="232" dy="-222" grid="1" gridSize="10" guides="1" tooltips="1" connect="1" arrows="1" fold="1" page="1" pageScale="1" pageWidth="827" pageHeight="1169" math="0" shadow="0">
      <root>
        <mxCell id="0" />
        <mxCell id="1" parent="0" />
        <mxCell id="Rr5qh3gPyp-c7PO1mBK9-1" value="Сервис по доставке еды - Дикоед" style="shape=umlFrame;whiteSpace=wrap;html=1;pointerEvents=0;width=170;height=30;" parent="1" vertex="1">
          <mxGeometry x="840" y="1200" width="640" height="840" as="geometry" />
        </mxCell>
        <mxCell id="Rr5qh3gPyp-c7PO1mBK9-2" value="Изучить мясную продукцию" style="ellipse;whiteSpace=wrap;html=1;" parent="1" vertex="1">
          <mxGeometry x="860" y="1330" width="125" height="70" as="geometry" />
        </mxCell>
        <mxCell id="Rr5qh3gPyp-c7PO1mBK9-3" value="Сделать заказ" style="ellipse;whiteSpace=wrap;html=1;" parent="1" vertex="1">
          <mxGeometry x="850" y="1710" width="140" height="70" as="geometry" />
        </mxCell>
        <mxCell id="Rr5qh3gPyp-c7PO1mBK9-4" value="Добавить товар&lt;div&gt;из меню отложенное&lt;/div&gt;" style="ellipse;whiteSpace=wrap;html=1;" parent="1" vertex="1">
          <mxGeometry x="1062.5" y="1620" width="140" height="70" as="geometry" />
        </mxCell>
        <mxCell id="Rr5qh3gPyp-c7PO1mBK9-5" value="&quot;extend&quot;" style="html=1;verticalAlign=bottom;endArrow=open;dashed=1;endSize=8;curved=0;rounded=0;exitX=0;exitY=0.5;exitDx=0;exitDy=0;entryX=1;entryY=0;entryDx=0;entryDy=0;" parent="1" source="Rr5qh3gPyp-c7PO1mBK9-4" target="Rr5qh3gPyp-c7PO1mBK9-3" edge="1">
          <mxGeometry x="-0.0151" y="-5" relative="1" as="geometry">
            <mxPoint x="1340" y="1760" as="sourcePoint" />
            <mxPoint x="1237.5" y="1780" as="targetPoint" />
            <mxPoint y="1" as="offset" />
          </mxGeometry>
        </mxCell>
        <mxCell id="Rr5qh3gPyp-c7PO1mBK9-6" value="&lt;span style=&quot;font-style: normal;&quot;&gt;Оплатить заказ&lt;br&gt;банковской картой&lt;/span&gt;" style="ellipse;whiteSpace=wrap;html=1;fontStyle=2" parent="1" vertex="1">
          <mxGeometry x="1062.5" y="1800" width="140" height="70" as="geometry" />
        </mxCell>
        <mxCell id="Rr5qh3gPyp-c7PO1mBK9-7" value="&quot;include&quot;" style="html=1;verticalAlign=bottom;endArrow=open;dashed=1;endSize=8;curved=0;rounded=0;entryX=0;entryY=0.5;entryDx=0;entryDy=0;exitX=1;exitY=1;exitDx=0;exitDy=0;" parent="1" source="Rr5qh3gPyp-c7PO1mBK9-3" target="Rr5qh3gPyp-c7PO1mBK9-6" edge="1">
          <mxGeometry relative="1" as="geometry">
            <mxPoint x="1127.5" y="1780" as="sourcePoint" />
            <mxPoint x="1047.5" y="1780" as="targetPoint" />
          </mxGeometry>
        </mxCell>
        <mxCell id="Rr5qh3gPyp-c7PO1mBK9-9" value="Воспользоваться промокодом" style="ellipse;whiteSpace=wrap;html=1;" parent="1" vertex="1">
          <mxGeometry x="1062.5" y="1530" width="140" height="70" as="geometry" />
        </mxCell>
        <mxCell id="Rr5qh3gPyp-c7PO1mBK9-10" value="&quot;extend&quot;" style="html=1;verticalAlign=bottom;endArrow=open;dashed=1;endSize=8;curved=0;rounded=0;exitX=0;exitY=0.5;exitDx=0;exitDy=0;entryX=0.5;entryY=0;entryDx=0;entryDy=0;" parent="1" source="Rr5qh3gPyp-c7PO1mBK9-9" target="Rr5qh3gPyp-c7PO1mBK9-3" edge="1">
          <mxGeometry x="-0.0151" y="-5" relative="1" as="geometry">
            <mxPoint x="1147.5" y="1680" as="sourcePoint" />
            <mxPoint x="1050.5" y="1680" as="targetPoint" />
            <mxPoint y="1" as="offset" />
          </mxGeometry>
        </mxCell>
        <mxCell id="Rr5qh3gPyp-c7PO1mBK9-11" value="Искать продукт" style="ellipse;whiteSpace=wrap;html=1;" parent="1" vertex="1">
          <mxGeometry x="1065" y="1330" width="140" height="70" as="geometry" />
        </mxCell>
        <mxCell id="Rr5qh3gPyp-c7PO1mBK9-12" value="&quot;extend&quot;" style="html=1;verticalAlign=bottom;endArrow=open;dashed=1;endSize=8;curved=0;rounded=0;entryX=1;entryY=0.5;entryDx=0;entryDy=0;exitX=0;exitY=0.5;exitDx=0;exitDy=0;" parent="1" source="Rr5qh3gPyp-c7PO1mBK9-11" target="Rr5qh3gPyp-c7PO1mBK9-2" edge="1">
          <mxGeometry relative="1" as="geometry">
            <mxPoint x="1112.5" y="1404.5" as="sourcePoint" />
            <mxPoint x="1037.5" y="1404.5" as="targetPoint" />
          </mxGeometry>
        </mxCell>
        <mxCell id="Rr5qh3gPyp-c7PO1mBK9-13" value="Выбрать&lt;div&gt;&amp;nbsp;категорию/сортировку&lt;/div&gt;" style="ellipse;whiteSpace=wrap;html=1;" parent="1" vertex="1">
          <mxGeometry x="1065" y="1430" width="140" height="70" as="geometry" />
        </mxCell>
        <mxCell id="Rr5qh3gPyp-c7PO1mBK9-14" value="&quot;extend&quot;" style="html=1;verticalAlign=bottom;endArrow=open;dashed=1;endSize=8;curved=0;rounded=0;entryX=1;entryY=1;entryDx=0;entryDy=0;exitX=0;exitY=0.5;exitDx=0;exitDy=0;" parent="1" source="Rr5qh3gPyp-c7PO1mBK9-13" target="Rr5qh3gPyp-c7PO1mBK9-2" edge="1">
          <mxGeometry relative="1" as="geometry">
            <mxPoint x="1097.5" y="1580" as="sourcePoint" />
            <mxPoint x="1022.5" y="1580" as="targetPoint" />
          </mxGeometry>
        </mxCell>
        <mxCell id="IUWhFUDdyYFZEnmkOw5m-1" value="CRUD корзина" style="ellipse;whiteSpace=wrap;html=1;" parent="1" vertex="1">
          <mxGeometry x="1065" y="1230" width="140" height="70" as="geometry" />
        </mxCell>
        <mxCell id="IUWhFUDdyYFZEnmkOw5m-2" value="&quot;extend&quot;" style="html=1;verticalAlign=bottom;endArrow=open;dashed=1;endSize=8;curved=0;rounded=0;exitX=0;exitY=0.5;exitDx=0;exitDy=0;entryX=1;entryY=0;entryDx=0;entryDy=0;" parent="1" source="IUWhFUDdyYFZEnmkOw5m-1" edge="1" target="Rr5qh3gPyp-c7PO1mBK9-2">
          <mxGeometry x="-0.4286" y="20" relative="1" as="geometry">
            <mxPoint x="1430" y="1375" as="sourcePoint" />
            <mxPoint x="943" y="1450" as="targetPoint" />
            <mxPoint as="offset" />
          </mxGeometry>
        </mxCell>
        <mxCell id="hiJRwkEV_NwB4ZxbgEaF-1" value="Переместить товар в отложенное" style="ellipse;whiteSpace=wrap;html=1;" parent="1" vertex="1">
          <mxGeometry x="1302.5" y="1230" width="150" height="70" as="geometry" />
        </mxCell>
        <mxCell id="hiJRwkEV_NwB4ZxbgEaF-2" value="&quot;extend&quot;" style="html=1;verticalAlign=bottom;endArrow=open;dashed=1;endSize=8;curved=0;rounded=0;exitX=0;exitY=0.5;exitDx=0;exitDy=0;entryX=1;entryY=0.5;entryDx=0;entryDy=0;" parent="1" source="hiJRwkEV_NwB4ZxbgEaF-1" target="IUWhFUDdyYFZEnmkOw5m-1" edge="1">
          <mxGeometry x="-0.4286" y="20" relative="1" as="geometry">
            <mxPoint x="1170" y="1295" as="sourcePoint" />
            <mxPoint x="953" y="1460" as="targetPoint" />
            <mxPoint as="offset" />
          </mxGeometry>
        </mxCell>
        <mxCell id="hiJRwkEV_NwB4ZxbgEaF-4" value="&lt;span style=&quot;font-style: normal;&quot;&gt;Указать адрес &lt;br&gt;доставки&lt;/span&gt;" style="ellipse;whiteSpace=wrap;html=1;fontStyle=2" parent="1" vertex="1">
          <mxGeometry x="1062.5" y="1710" width="140" height="70" as="geometry" />
        </mxCell>
        <mxCell id="hiJRwkEV_NwB4ZxbgEaF-5" value="&quot;include&quot;" style="html=1;verticalAlign=bottom;endArrow=open;dashed=1;endSize=8;curved=0;rounded=0;entryX=0;entryY=0.5;entryDx=0;entryDy=0;exitX=1;exitY=0.5;exitDx=0;exitDy=0;" parent="1" source="Rr5qh3gPyp-c7PO1mBK9-3" target="hiJRwkEV_NwB4ZxbgEaF-4" edge="1">
          <mxGeometry relative="1" as="geometry">
            <mxPoint x="1187.5" y="1777.5" as="sourcePoint" />
            <mxPoint x="1342.5" y="1792.5" as="targetPoint" />
          </mxGeometry>
        </mxCell>
        <mxCell id="hiJRwkEV_NwB4ZxbgEaF-6" value="Выбрать способ получения" style="ellipse;whiteSpace=wrap;html=1;fontStyle=2" parent="1" vertex="1">
          <mxGeometry x="1062.5" y="1890" width="140" height="70" as="geometry" />
        </mxCell>
        <mxCell id="hiJRwkEV_NwB4ZxbgEaF-7" value="&quot;include&quot;" style="html=1;verticalAlign=bottom;endArrow=open;dashed=1;endSize=8;curved=0;rounded=0;entryX=0;entryY=0.5;entryDx=0;entryDy=0;exitX=0.5;exitY=1;exitDx=0;exitDy=0;" parent="1" source="Rr5qh3gPyp-c7PO1mBK9-3" target="hiJRwkEV_NwB4ZxbgEaF-6" edge="1">
          <mxGeometry relative="1" as="geometry">
            <mxPoint x="837.5" y="1770" as="sourcePoint" />
            <mxPoint x="917.5" y="1850" as="targetPoint" />
          </mxGeometry>
        </mxCell>
        <mxCell id="p20bNLwVwnWagOTb2n-6-1" value="Самовывоз" style="ellipse;whiteSpace=wrap;html=1;" parent="1" vertex="1">
          <mxGeometry x="1307.5" y="1832.5" width="145" height="70" as="geometry" />
        </mxCell>
        <mxCell id="p20bNLwVwnWagOTb2n-6-2" value="Доставка" style="ellipse;whiteSpace=wrap;html=1;" parent="1" vertex="1">
          <mxGeometry x="1312.5" y="1952.5" width="140" height="65" as="geometry" />
        </mxCell>
        <mxCell id="-MMsRmkNTy1G63XMxvsr-1" value="" style="html=1;verticalAlign=bottom;endArrow=block;curved=0;rounded=0;endFill=0;endSize=12;entryX=1;entryY=0.5;entryDx=0;entryDy=0;" parent="1" target="hiJRwkEV_NwB4ZxbgEaF-6" edge="1">
          <mxGeometry width="80" relative="1" as="geometry">
            <mxPoint x="1267.5" y="1925" as="sourcePoint" />
            <mxPoint x="1147.5" y="1885" as="targetPoint" />
          </mxGeometry>
        </mxCell>
        <mxCell id="-MMsRmkNTy1G63XMxvsr-2" style="edgeStyle=orthogonalEdgeStyle;rounded=0;orthogonalLoop=1;jettySize=auto;html=1;entryX=0;entryY=0.5;entryDx=0;entryDy=0;endArrow=none;endFill=0;exitX=0;exitY=0.5;exitDx=0;exitDy=0;" parent="1" source="p20bNLwVwnWagOTb2n-6-2" target="p20bNLwVwnWagOTb2n-6-1" edge="1">
          <mxGeometry relative="1" as="geometry">
            <mxPoint x="1697.5" y="1817.5" as="sourcePoint" />
            <mxPoint x="1677.5" y="1722.5" as="targetPoint" />
            <Array as="points">
              <mxPoint x="1312.5" y="1987" />
              <mxPoint x="1267.5" y="1987" />
              <mxPoint x="1267.5" y="1867" />
            </Array>
          </mxGeometry>
        </mxCell>
      </root>
    </mxGraphModel>
  </diagram>
</mxfile>
